ffmpeg started on 2025-05-12 at 20:04:00
Report written to "D:\Convert\FFMetrics\reports\ssim_report-6.txt"
Log level: 32
Command line:
ffmpeg -hide_banner -nostdin -i "G:\\\xc0\xed\xe8\xec\xe5\\\xce\xed\xe3\xee\xe8\xed\xe3\xe8\\!_35_\xcb\xe5\xf2\xee_2024\\DreamCast-1\\\xcf\xee\xeb\xf3\xed\xee\xf7\xed\xfb\xe9 \xf3\xe4\xe0\xf0\\[DC] Mayonaka Punch - 01_Telegram_HEVC.mkv" -i "G:\\\xc0\xed\xe8\xec\xe5\\\xce\xed\xe3\xee\xe8\xed\xe3\xe8\\!_35_\xcb\xe5\xf2\xee_2024\\DreamCast-1\\\xcf\xee\xeb\xf3\xed\xee\xf7\xed\xfb\xe9 \xf3\xe4\xe0\xf0\\[DC] Mayonaka Punch - 01_Telegram.mp4" -lavfi "[0:v]settb=AVTB,setpts=PTS-STARTPTS,format=pix_fmts=yuv420p10,fps=24000/1001,scale=1920:1080:flags=bicubic[main];[1:v]settb=AVTB,setpts=PTS-STARTPTS,format=pix_fmts=yuv420p,fps=24000/1001,scale=1920:1080:flags=bicubic[ref];[main][ref]ssim=eof_action=endall:stats_file='D\\:/Convert/FFMetrics/logs/ssim_logfile-6.txt'" -f null -
Input #0, matroska,webm, from 'G:\Аниме\Онгоинги\!_35_Лето_2024\DreamCast-1\Полуночный удар\[DC] Mayonaka Punch - 01_Telegram_HEVC.mkv':
  Metadata:
    COMPATIBLE_BRANDS: isomiso2avc1mp41
    MAJOR_BRAND     : isom
    MINOR_VERSION   : 512
    ENCODER         : Lavf61.7.100
  Duration: 00:23:47.71, start: -0.021000, bitrate: 1170 kb/s
  Stream #0:0: Video: hevc (Main 10), yuv420p10le(tv, bt709, progressive), 1920x1080 [SAR 1:1 DAR 16:9], 23.98 fps, 23.98 tbr, 1k tbn (default)
      Metadata:
        HANDLER_NAME    : VideoHandler
        VENDOR_ID       : [0][0][0][0]
        ENCODER         : Lavc61.19.100 libx265
        BPS             : 974683
        DURATION        : 00:23:46.549708333
        NUMBER_OF_FRAMES: 34203
        NUMBER_OF_BYTES : 173804162
        _STATISTICS_WRITING_APP: mkvpropedit v66.0.0 ('Josie') 64-bit
        _STATISTICS_WRITING_DATE_UTC: 2025-05-10 09:59:49
        _STATISTICS_TAGS: BPS DURATION NUMBER_OF_FRAMES NUMBER_OF_BYTES
  Stream #0:1: Audio: aac (LC), 48000 Hz, stereo, fltp (default)
      Metadata:
        HANDLER_NAME    : SoundHandler
        VENDOR_ID       : [0][0][0][0]
        ENCODER         : Lavc61.19.100 aac
        BPS             : 192400
        DURATION        : 00:23:47.712000000
        NUMBER_OF_FRAMES: 66925
        NUMBER_OF_BYTES : 34336607
        _STATISTICS_WRITING_APP: mkvpropedit v66.0.0 ('Josie') 64-bit
        _STATISTICS_WRITING_DATE_UTC: 2025-05-10 09:59:49
        _STATISTICS_TAGS: BPS DURATION NUMBER_OF_FRAMES NUMBER_OF_BYTES
Input #1, mov,mp4,m4a,3gp,3g2,mj2, from 'G:\Аниме\Онгоинги\!_35_Лето_2024\DreamCast-1\Полуночный удар\[DC] Mayonaka Punch - 01_Telegram.mp4':
  Metadata:
    major_brand     : isom
    minor_version   : 512
    compatible_brands: isomiso2avc1mp41
    encoder         : Lavf61.1.100
  Duration: 00:23:47.68, start: 0.000000, bitrate: 3778 kb/s
  Stream #1:0[0x1](und): Video: h264 (High) (avc1 / 0x31637661), yuv420p(tv, bt709, progressive), 1920x1080 [SAR 1:1 DAR 16:9], 3633 kb/s, 23.98 fps, 23.98 tbr, 24k tbn (default)
      Metadata:
        handler_name    : VideoHandler
        vendor_id       : [0][0][0][0]
        encoder         : Lavc61.3.100 h264_qsv
  Stream #1:1[0x2](und): Audio: aac (HE-AACv2) (mp4a / 0x6134706D), 48000 Hz, stereo, fltp, 144 kb/s (default)
      Metadata:
        handler_name    : SoundHandler
        vendor_id       : [0][0][0][0]
Stream mapping:
  Stream #0:0 (hevc) -> settb:default
  Stream #1:0 (h264) -> settb:default
  ssim:default -> Stream #0:0 (wrapped_avframe)
  Stream #0:1 -> #0:1 (aac (native) -> pcm_s16le (native))
Output #0, null, to 'pipe:':
  Metadata:
    COMPATIBLE_BRANDS: isomiso2avc1mp41
    MAJOR_BRAND     : isom
    MINOR_VERSION   : 512
    encoder         : Lavf61.7.100
  Stream #0:0: Video: wrapped_avframe, yuv420p10le(tv, bt709, progressive), 1920x1080 [SAR 1:1 DAR 16:9], q=2-31, 200 kb/s, 23.98 fps, 23.98 tbn
      Metadata:
        encoder         : Lavc61.19.100 wrapped_avframe
  Stream #0:1: Audio: pcm_s16le, 48000 Hz, stereo, s16, 1536 kb/s (default)
      Metadata:
        HANDLER_NAME    : SoundHandler
        VENDOR_ID       : [0][0][0][0]
        _STATISTICS_TAGS: BPS DURATION NUMBER_OF_FRAMES NUMBER_OF_BYTES
        BPS             : 192400
        DURATION        : 00:23:47.712000000
        NUMBER_OF_FRAMES: 66925
        NUMBER_OF_BYTES : 34336607
        _STATISTICS_WRITING_APP: mkvpropedit v66.0.0 ('Josie') 64-bit
        _STATISTICS_WRITING_DATE_UTC: 2025-05-10 09:59:49
        encoder         : Lavc61.19.100 pcm_s16le
frame=  172 fps=0.0 q=-0.0 size=N/A time=00:00:07.17 bitrate=N/A speed=13.9x    frame=  334 fps=322 q=-0.0 size=N/A time=00:00:13.93 bitrate=N/A speed=13.4x    frame=  496 fps=318 q=-0.0 size=N/A time=00:00:20.68 bitrate=N/A speed=13.3x    frame=  680 fps=329 q=-0.0 size=N/A time=00:00:28.36 bitrate=N/A speed=13.7x    frame=  868 fps=336 q=-0.0 size=N/A time=00:00:36.20 bitrate=N/A speed=  14x    frame= 1049 fps=339 q=-0.0 size=N/A time=00:00:43.75 bitrate=N/A speed=14.1x    frame= 1242 fps=343 q=-0.0 size=N/A time=00:00:51.80 bitrate=N/A speed=14.3x    frame= 1449 fps=350 q=-0.0 size=N/A time=00:01:00.43 bitrate=N/A speed=14.6x    frame= 1648 fps=354 q=-0.0 size=N/A time=00:01:08.73 bitrate=N/A speed=14.8x    frame= 1851 fps=359 q=-0.0 size=N/A time=00:01:17.20 bitrate=N/A speed=  15x    frame= 2051 fps=361 q=-0.0 size=N/A time=00:01:25.54 bitrate=N/A speed=15.1x    frame= 2233 fps=361 q=-0.0 size=N/A time=00:01:33.13 bitrate=N/A speed=15.1x    frame= 2448 fps=365 q=-0.0 size=N/A time=00:01:42.10 bitrate=N/A speed=15.2x    frame= 2700 fps=373 q=-0.0 size=N/A time=00:01:52.61 bitrate=N/A speed=15.6x    frame= 2921 fps=377 q=-0.0 size=N/A time=00:02:01.83 bitrate=N/A speed=15.7x    frame= 3198 fps=387 q=-0.0 size=N/A time=00:02:13.38 bitrate=N/A speed=16.1x    frame= 3450 fps=394 q=-0.0 size=N/A time=00:02:23.89 bitrate=N/A speed=16.4x    frame= 3699 fps=398 q=-0.0 size=N/A time=00:02:34.27 bitrate=N/A speed=16.6x    frame= 3944 fps=403 q=-0.0 size=N/A time=00:02:44.49 bitrate=N/A speed=16.8x    frame= 4169 fps=404 q=-0.0 size=N/A time=00:02:53.88 bitrate=N/A speed=16.8x    frame= 4392 fps=406 q=-0.0 size=N/A time=00:03:03.18 bitrate=N/A speed=16.9x    frame= 4607 fps=406 q=-0.0 size=N/A time=00:03:12.15 bitrate=N/A speed=16.9x    frame= 4856 fps=409 q=-0.0 size=N/A time=00:03:22.53 bitrate=N/A speed=17.1x    frame= 5111 fps=413 q=-0.0 size=N/A time=00:03:33.17 bitrate=N/A speed=17.2x    frame= 5365 fps=416 q=-0.0 size=N/A time=00:03:43.76 bitrate=N/A speed=17.3x    frame= 5619 fps=419 q=-0.0 size=N/A time=00:03:54.35 bitrate=N/A speed=17.5x    frame= 5881 fps=422 q=-0.0 size=N/A time=00:04:05.28 bitrate=N/A speed=17.6x    frame= 6163 fps=426 q=-0.0 size=N/A time=00:04:17.04 bitrate=N/A speed=17.8x    frame= 6424 fps=429 q=-0.0 size=N/A time=00:04:27.93 bitrate=N/A speed=17.9x    frame= 6672 fps=431 q=-0.0 size=N/A time=00:04:38.27 bitrate=N/A speed=  18x    frame= 6898 fps=431 q=-0.0 size=N/A time=00:04:47.70 bitrate=N/A speed=  18x    frame= 7129 fps=431 q=-0.0 size=N/A time=00:04:57.33 bitrate=N/A speed=  18x    frame= 7357 fps=432 q=-0.0 size=N/A time=00:05:06.84 bitrate=N/A speed=  18x    frame= 7606 fps=433 q=-0.0 size=N/A time=00:05:17.23 bitrate=N/A speed=18.1x    frame= 7846 fps=434 q=-0.0 size=N/A time=00:05:27.24 bitrate=N/A speed=18.1x    frame= 8115 fps=437 q=-0.0 size=N/A time=00:05:38.46 bitrate=N/A speed=18.2x    frame= 8364 fps=438 q=-0.0 size=N/A time=00:05:48.84 bitrate=N/A speed=18.3x    frame= 8596 fps=438 q=-0.0 size=N/A time=00:05:58.52 bitrate=N/A speed=18.3x    frame= 8816 fps=438 q=-0.0 size=N/A time=00:06:07.70 bitrate=N/A speed=18.3x    frame= 9047 fps=438 q=-0.0 size=N/A time=00:06:17.33 bitrate=N/A speed=18.3x    frame= 9231 fps=436 q=-0.0 size=N/A time=00:06:25.00 bitrate=N/A speed=18.2x    frame= 9483 fps=438 q=-0.0 size=N/A time=00:06:35.52 bitrate=N/A speed=18.3x    frame= 9732 fps=439 q=-0.0 size=N/A time=00:06:45.90 bitrate=N/A speed=18.3x    frame= 9979 fps=439 q=-0.0 size=N/A time=00:06:56.20 bitrate=N/A speed=18.3x    frame=10219 fps=440 q=-0.0 size=N/A time=00:07:06.25 bitrate=N/A speed=18.3x    frame=10474 fps=441 q=-0.0 size=N/A time=00:07:16.85 bitrate=N/A speed=18.4x    frame=10714 fps=442 q=-0.0 size=N/A time=00:07:26.86 bitrate=N/A speed=18.4x    frame=10956 fps=442 q=-0.0 size=N/A time=00:07:36.95 bitrate=N/A speed=18.5x    frame=11227 fps=444 q=-0.0 size=N/A time=00:07:48.25 bitrate=N/A speed=18.5x    frame=11463 fps=444 q=-0.0 size=N/A time=00:07:58.10 bitrate=N/A speed=18.5x    frame=11665 fps=443 q=-0.0 size=N/A time=00:08:06.52 bitrate=N/A speed=18.5x    frame=11892 fps=443 q=-0.0 size=N/A time=00:08:15.99 bitrate=N/A speed=18.5x    frame=12143 fps=444 q=-0.0 size=N/A time=00:08:26.46 bitrate=N/A speed=18.5x    frame=12412 fps=445 q=-0.0 size=N/A time=00:08:37.68 bitrate=N/A speed=18.6x    frame=12691 fps=447 q=-0.0 size=N/A time=00:08:49.32 bitrate=N/A speed=18.6x    frame=12931 fps=447 q=-0.0 size=N/A time=00:08:59.33 bitrate=N/A speed=18.7x    frame=13164 fps=447 q=-0.0 size=N/A time=00:09:09.04 bitrate=N/A speed=18.7x    frame=13421 fps=448 q=-0.0 size=N/A time=00:09:19.76 bitrate=N/A speed=18.7x    frame=13670 fps=449 q=-0.0 size=N/A time=00:09:30.15 bitrate=N/A speed=18.7x    frame=13945 fps=450 q=-0.0 size=N/A time=00:09:41.62 bitrate=N/A speed=18.8x    frame=14214 fps=451 q=-0.0 size=N/A time=00:09:52.84 bitrate=N/A speed=18.8x    frame=14467 fps=452 q=-0.0 size=N/A time=00:10:03.39 bitrate=N/A speed=18.8x    frame=14722 fps=453 q=-0.0 size=N/A time=00:10:14.03 bitrate=N/A speed=18.9x    frame=14998 fps=454 q=-0.0 size=N/A time=00:10:25.54 bitrate=N/A speed=18.9x    frame=15239 fps=454 q=-0.0 size=N/A time=00:10:35.59 bitrate=N/A speed=18.9x    frame=15503 fps=455 q=-0.0 size=N/A time=00:10:46.60 bitrate=N/A speed=  19x    frame=15762 fps=456 q=-0.0 size=N/A time=00:10:57.40 bitrate=N/A speed=  19x    frame=16027 fps=456 q=-0.0 size=N/A time=00:11:08.45 bitrate=N/A speed=  19x    frame=16291 fps=457 q=-0.0 size=N/A time=00:11:19.47 bitrate=N/A speed=19.1x    frame=16568 fps=458 q=-0.0 size=N/A time=00:11:31.02 bitrate=N/A speed=19.1x    frame=16802 fps=458 q=-0.0 size=N/A time=00:11:40.78 bitrate=N/A speed=19.1x    frame=17060 fps=459 q=-0.0 size=N/A time=00:11:51.54 bitrate=N/A speed=19.1x    frame=17326 fps=460 q=-0.0 size=N/A time=00:12:02.63 bitrate=N/A speed=19.2x    frame=17544 fps=459 q=-0.0 size=N/A time=00:12:11.73 bitrate=N/A speed=19.1x    frame=17754 fps=459 q=-0.0 size=N/A time=00:12:20.48 bitrate=N/A speed=19.1x    frame=17996 fps=459 q=-0.0 size=N/A time=00:12:30.58 bitrate=N/A speed=19.1x    frame=18216 fps=458 q=-0.0 size=N/A time=00:12:39.75 bitrate=N/A speed=19.1x    frame=18419 fps=457 q=-0.0 size=N/A time=00:12:48.22 bitrate=N/A speed=19.1x    frame=18679 fps=458 q=-0.0 size=N/A time=00:12:59.06 bitrate=N/A speed=19.1x    frame=18920 fps=458 q=-0.0 size=N/A time=00:13:09.12 bitrate=N/A speed=19.1x    frame=19183 fps=459 q=-0.0 size=N/A time=00:13:20.09 bitrate=N/A speed=19.1x    frame=19467 fps=460 q=-0.0 size=N/A time=00:13:31.93 bitrate=N/A speed=19.2x    frame=19708 fps=460 q=-0.0 size=N/A time=00:13:41.98 bitrate=N/A speed=19.2x    frame=19950 fps=460 q=-0.0 size=N/A time=00:13:52.08 bitrate=N/A speed=19.2x    frame=20186 fps=460 q=-0.0 size=N/A time=00:14:01.92 bitrate=N/A speed=19.2x    frame=20430 fps=460 q=-0.0 size=N/A time=00:14:12.10 bitrate=N/A speed=19.2x    frame=20658 fps=460 q=-0.0 size=N/A time=00:14:21.65 bitrate=N/A speed=19.2x    frame=20888 fps=460 q=-0.0 size=N/A time=00:14:31.20 bitrate=N/A speed=19.2x    frame=21170 fps=461 q=-0.0 size=N/A time=00:14:42.96 bitrate=N/A speed=19.2x    frame=21441 fps=461 q=-0.0 size=N/A time=00:14:54.26 bitrate=N/A speed=19.2x    frame=21670 fps=461 q=-0.0 size=N/A time=00:15:03.81 bitrate=N/A speed=19.2x    frame=21929 fps=462 q=-0.0 size=N/A time=00:15:14.62 bitrate=N/A speed=19.3x    frame=22184 fps=462 q=-0.0 size=N/A time=00:15:25.25 bitrate=N/A speed=19.3x    frame=22425 fps=462 q=-0.0 size=N/A time=00:15:35.30 bitrate=N/A speed=19.3x    frame=22672 fps=462 q=-0.0 size=N/A time=00:15:45.61 bitrate=N/A speed=19.3x    frame=22922 fps=463 q=-0.0 size=N/A time=00:15:56.03 bitrate=N/A speed=19.3x    frame=23164 fps=463 q=-0.0 size=N/A time=00:16:06.13 bitrate=N/A speed=19.3x    frame=23412 fps=463 q=-0.0 size=N/A time=00:16:16.47 bitrate=N/A speed=19.3x    frame=23653 fps=463 q=-0.0 size=N/A time=00:16:26.52 bitrate=N/A speed=19.3x    frame=23913 fps=463 q=-0.0 size=N/A time=00:16:37.37 bitrate=N/A speed=19.3x    frame=24160 fps=463 q=-0.0 size=N/A time=00:16:47.67 bitrate=N/A speed=19.3x    frame=24378 fps=463 q=-0.0 size=N/A time=00:16:56.76 bitrate=N/A speed=19.3x    frame=24585 fps=462 q=-0.0 size=N/A time=00:17:05.39 bitrate=N/A speed=19.3x    frame=24812 fps=462 q=-0.0 size=N/A time=00:17:14.86 bitrate=N/A speed=19.3x    frame=25023 fps=462 q=-0.0 size=N/A time=00:17:23.66 bitrate=N/A speed=19.3x    frame=25246 fps=461 q=-0.0 size=N/A time=00:17:32.96 bitrate=N/A speed=19.2x    frame=25479 fps=461 q=-0.0 size=N/A time=00:17:42.68 bitrate=N/A speed=19.2x    frame=25716 fps=461 q=-0.0 size=N/A time=00:17:52.57 bitrate=N/A speed=19.2x    frame=25966 fps=462 q=-0.0 size=N/A time=00:18:02.99 bitrate=N/A speed=19.3x    frame=26185 fps=461 q=-0.0 size=N/A time=00:18:12.13 bitrate=N/A speed=19.2x    frame=26378 fps=460 q=-0.0 size=N/A time=00:18:20.18 bitrate=N/A speed=19.2x    frame=26633 fps=461 q=-0.0 size=N/A time=00:18:30.81 bitrate=N/A speed=19.2x    frame=26858 fps=461 q=-0.0 size=N/A time=00:18:40.20 bitrate=N/A speed=19.2x    frame=27102 fps=461 q=-0.0 size=N/A time=00:18:50.37 bitrate=N/A speed=19.2x    frame=27356 fps=461 q=-0.0 size=N/A time=00:19:00.97 bitrate=N/A speed=19.2x    frame=27612 fps=461 q=-0.0 size=N/A time=00:19:11.65 bitrate=N/A speed=19.2x    frame=27864 fps=461 q=-0.0 size=N/A time=00:19:22.16 bitrate=N/A speed=19.2x    frame=28107 fps=461 q=-0.0 size=N/A time=00:19:32.29 bitrate=N/A speed=19.2x    frame=28355 fps=462 q=-0.0 size=N/A time=00:19:42.63 bitrate=N/A speed=19.3x    frame=28610 fps=462 q=-0.0 size=N/A time=00:19:53.27 bitrate=N/A speed=19.3x    frame=28807 fps=461 q=-0.0 size=N/A time=00:20:01.49 bitrate=N/A speed=19.2x    frame=29058 fps=462 q=-0.0 size=N/A time=00:20:11.96 bitrate=N/A speed=19.2x    frame=29244 fps=461 q=-0.0 size=N/A time=00:20:19.71 bitrate=N/A speed=19.2x    frame=29375 fps=459 q=-0.0 size=N/A time=00:20:25.18 bitrate=N/A speed=19.1x    frame=29581 fps=459 q=-0.0 size=N/A time=00:20:33.77 bitrate=N/A speed=19.1x    frame=29778 fps=458 q=-0.0 size=N/A time=00:20:41.99 bitrate=N/A speed=19.1x    frame=30011 fps=458 q=-0.0 size=N/A time=00:20:51.70 bitrate=N/A speed=19.1x    frame=30208 fps=457 q=-0.0 size=N/A time=00:20:59.92 bitrate=N/A speed=19.1x    frame=30372 fps=456 q=-0.0 size=N/A time=00:21:06.76 bitrate=N/A speed=  19x    frame=30589 fps=456 q=-0.0 size=N/A time=00:21:15.81 bitrate=N/A speed=  19x    frame=30860 fps=456 q=-0.0 size=N/A time=00:21:27.11 bitrate=N/A speed=  19x    frame=31126 fps=457 q=-0.0 size=N/A time=00:21:38.21 bitrate=N/A speed=19.1x    frame=31370 fps=457 q=-0.0 size=N/A time=00:21:48.39 bitrate=N/A speed=19.1x    frame=31633 fps=457 q=-0.0 size=N/A time=00:21:59.35 bitrate=N/A speed=19.1x    frame=31891 fps=458 q=-0.0 size=N/A time=00:22:10.12 bitrate=N/A speed=19.1x    frame=32130 fps=458 q=-0.0 size=N/A time=00:22:20.08 bitrate=N/A speed=19.1x    frame=32372 fps=458 q=-0.0 size=N/A time=00:22:30.18 bitrate=N/A speed=19.1x    frame=32582 fps=458 q=-0.0 size=N/A time=00:22:38.94 bitrate=N/A speed=19.1x    frame=32797 fps=457 q=-0.0 size=N/A time=00:22:47.90 bitrate=N/A speed=19.1x    frame=32981 fps=457 q=-0.0 size=N/A time=00:22:55.58 bitrate=N/A speed=  19x    frame=33191 fps=456 q=-0.0 size=N/A time=00:23:04.34 bitrate=N/A speed=  19x    frame=33397 fps=456 q=-0.0 size=N/A time=00:23:12.93 bitrate=N/A speed=  19x    frame=33642 fps=456 q=-0.0 size=N/A time=00:23:23.15 bitrate=N/A speed=  19x    frame=33886 fps=456 q=-0.0 size=N/A time=00:23:33.32 bitrate=N/A speed=  19x    frame=34077 fps=455 q=-0.0 size=N/A time=00:23:41.29 bitrate=N/A speed=  19x    [Parsed_ssim_10 @ 000001cd48d6ab40] SSIM Y:0.994085 (22.280760) U:0.994721 (22.774102) V:0.994766 (22.811704) All:0.994305 (22.444842)
[out#0/null @ 000001cd48d44340] video:14697KiB audio:267700KiB subtitle:0KiB other streams:0KiB global headers:0KiB muxing overhead: unknown
frame=34203 fps=455 q=-0.0 Lsize=N/A time=00:23:46.55 bitrate=N/A speed=  19x    
